<?xml version="1.0" encoding="UTF-8"?>
<svg id="Layer_2" data-name="Layer 2" xmlns="http://www.w3.org/2000/svg" xmlns:xlink="http://www.w3.org/1999/xlink" viewBox="0 0 385.02 436.95">
  <defs>
    <style>
      .cls-1 {
        fill: url(#linear-gradient-3);
      }

      .cls-2 {
        fill: url(#linear-gradient-2);
      }

      .cls-3 {
        fill: url(#linear-gradient);
      }
    </style>
    <linearGradient id="linear-gradient" x1="57.96" y1="82.46" x2="357.68" y2="82.46" gradientUnits="userSpaceOnUse">
      <stop offset="0" stop-color="#0fb3df"/>
      <stop offset="1" stop-color="#0f5fdf"/>
    </linearGradient>
    <linearGradient id="linear-gradient-2" x1="27.41" y1="354.54" x2="327.17" y2="354.54" xlink:href="#linear-gradient"/>
    <linearGradient id="linear-gradient-3" x1="0" y1="228.48" x2="385.02" y2="228.48" xlink:href="#linear-gradient"/>
  </defs>
  <g id="Layer_1-2" data-name="Layer 1">
    <g>
      <path class="cls-3" d="M345.33,119.27l-68.27,45.65-32.7-13.59L57.96,73.94,179.6,3.72c8.09-4.67,17.99-4.96,26.34-.77l136.4,68.39c19.04,9.55,20.7,36.09,2.99,47.93Z"/>
      <path class="cls-2" d="M327.17,363l-121.64,70.22c-8.09,4.67-17.99,4.96-26.34.78l-136.44-68.37c-19.06-9.55-20.71-36.12-2.97-47.95l68.29-45.55,32.7,13.59,186.41,77.28Z"/>
      <path class="cls-1" d="M385.02,294v35.67l-223.88-92.99L0,169.8v-2.4c0-28.57,29.05-47.96,55.43-37.01l168.55,69.98,136.34,56.62c14.95,6.21,24.7,20.81,24.7,37Z"/>
    </g>
  </g>
</svg>